PathFileType	4	(X/Y/Z)	output.trc
DataRate	CameraRate	NumFrames	NumMarkers	Units	OrigDataRate	OrigDataStartFrame	OrigNumFrames
100	100	10	23	m	100	3144	5030
Frame#	Time	C7			T8			EL			EM			US			RS			AA			Fore_Clus_1			Fore_Clus_2			Fore_Clus_3			Fore_Clus_4			Hum_Clus_1			Hum_Clus_2			Hum_Clus_3			Hum_Clus_4			Thor_Clus_1			Thor_Clus_2			Thor_Clus_3			Thor_Clus_4			IJ			PX			GH			Thor_Clus_5		
		X1	Y1	Z1	X2	Y2	Z2	X3	Y3	Z3	X4	Y4	Z4	X5	Y5	Z5	X6	Y6	Z6	X7	Y7	Z7	X8	Y8	Z8	X9	Y9	Z9	X10	Y10	Z10	X11	Y11	Z11	X12	Y12	Z12	X13	Y13	Z13	X14	Y14	Z14	X15	Y15	Z15	X16	Y16	Z16	X17	Y17	Z17	X18	Y18	Z18	X19	Y19	Z19	X20	Y20	Z20	X21	Y21	Z21	X22	Y22	Z22	X23	Y23	Z23
3143	31.430000	-0.012740	1.347100	-0.110537	-0.015366	1.144411	-0.129534	-0.193681	1.003668	0.000129	-0.156324	0.992562	-0.040521	-0.192605	0.770262	0.032832	-0.153554	0.775695	0.061357	-0.149436	1.262053	-0.008422	-0.216334	0.820956	0.053868	-0.212982	0.768751	0.065616	-0.189378	0.772877	0.080194	-0.179789	0.829764	0.078759	-0.197586	1.082610	0.042749	-0.222341	1.099969	-0.009376	-0.221733	1.163157	-0.000985	-0.189550	1.156306	0.047872	0.095046	1.264022	0.016160	0.052677	1.216017	0.071085	0.055068	1.261597	0.035688	0.110671	1.219474	0.042770	0.034691	1.283607	-0.027645	0.069777	1.095064	0.042191	-0.125941	1.254617	-0.013867	0.045778	1.235750	0.059209
3144	31.440000	-0.012840	1.346918	-0.110479	-0.015364	1.144216	-0.129353	-0.193480	1.003574	-0.000150	-0.156074	0.992550	-0.040777	-0.192393	0.770138	0.032306	-0.153420	0.775553	0.060940	-0.149529	1.261868	-0.008357	-0.216222	0.820837	0.053243	-0.212879	0.768635	0.065087	-0.189353	0.772734	0.079714	-0.179727	0.829578	0.078296	-0.197491	1.082457	0.042560	-0.222177	1.099832	-0.009590	-0.221684	1.163014	-0.001148	-0.189547	1.156185	0.047760	0.094991	1.263990	0.016344	0.052571	1.215978	0.071238	0.054983	1.261578	0.035862	0.110585	1.219479	0.042964	0.034594	1.283499	-0.027532	0.069747	1.095015	0.042430	-0.126006	1.254612	-0.013838	0.045678	1.235706	0.059351
3145	31.450000	-0.012927	1.346752	-0.110417	-0.015355	1.144040	-0.129184	-0.193276	1.003483	-0.000400	-0.155826	0.992538	-0.041009	-0.192198	0.770025	0.031827	-0.153302	0.775419	0.060571	-0.149615	1.261696	-0.008298	-0.216143	0.820745	0.052731	-0.212844	0.768531	0.064562	-0.189400	0.772611	0.079363	-0.179747	0.829433	0.077940	-0.197376	1.082301	0.042392	-0.222062	1.099685	-0.009759	-0.221647	1.162873	-0.001284	-0.189554	1.156027	0.047654	0.094928	1.263980	0.016511	0.052499	1.215924	0.071443	0.054866	1.261483	0.036025	0.110512	1.219439	0.043163	0.034505	1.283398	-0.027420	0.069717	1.094968	0.042656	-0.126069	1.254609	-0.013803	0.045572	1.235662	0.059484
3146	31.460000	-0.013007	1.346593	-0.110354	-0.015341	1.143870	-0.129021	-0.193070	1.003397	-0.000621	-0.155586	0.992529	-0.041218	-0.192018	0.769923	0.031391	-0.153203	0.775294	0.060247	-0.149694	1.261529	-0.008241	-0.216072	0.820660	0.052271	-0.212809	0.768431	0.064050	-0.189533	0.772591	0.078979	-0.179745	0.829338	0.077574	-0.197262	1.082165	0.042237	-0.221939	1.099556	-0.009923	-0.221617	1.162744	-0.001401	-0.189545	1.155881	0.047558	0.094880	1.263946	0.016685	0.052394	1.215865	0.071568	0.054788	1.261440	0.036156	0.110429	1.219422	0.043349	0.034423	1.283300	-0.027309	0.069691	1.094920	0.042873	-0.126130	1.254607	-0.013763	0.045469	1.235589	0.059625
3147	31.470000	-0.013070	1.346458	-0.110281	-0.015319	1.143727	-0.128875	-0.192865	1.003316	-0.000815	-0.155353	0.992522	-0.041406	-0.191854	0.769832	0.030989	-0.153121	0.775179	0.059960	-0.149764	1.261379	-0.008190	-0.216019	0.820575	0.051867	-0.212792	0.768300	0.063573	-0.189625	0.772563	0.078520	-0.179749	0.829220	0.077307	-0.197168	1.082048	0.042103	-0.221839	1.099435	-0.010062	-0.221576	1.162615	-0.001500	-0.189528	1.155742	0.047486	0.094830	1.263923	0.016861	0.052280	1.215810	0.071707	0.054723	1.261393	0.036289	0.110376	1.219382	0.043512	0.034353	1.283214	-0.027195	0.069666	1.094873	0.043070	-0.126189	1.254609	-0.013717	0.045382	1.235543	0.059760
3148	31.480000	-0.013109	1.346360	-0.110195	-0.015284	1.143625	-0.128753	-0.192663	1.003241	-0.000983	-0.155129	0.992520	-0.041574	-0.191705	0.769752	0.030613	-0.153056	0.775073	0.059701	-0.149820	1.261254	-0.008148	-0.215966	0.820502	0.051530	-0.212801	0.768204	0.063197	-0.189622	0.772422	0.078146	-0.179752	0.829122	0.077061	-0.197087	1.081952	0.042006	-0.221739	1.099334	-0.010171	-0.221553	1.162515	-0.001562	-0.189517	1.155610	0.047433	0.094759	1.263901	0.017044	0.052195	1.215767	0.071834	0.054689	1.261348	0.036404	0.110311	1.219348	0.043661	0.034297	1.283146	-0.027076	0.069641	1.094828	0.043237	-0.126244	1.254614	-0.013662	0.045289	1.235514	0.059898
3149	31.490000	-0.013133	1.346285	-0.110097	-0.015241	1.143549	-0.128649	-0.192466	1.003174	-0.001130	-0.154918	0.992522	-0.041726	-0.191570	0.769684	0.030260	-0.153007	0.774976	0.059468	-0.149866	1.261145	-0.008110	-0.215893	0.820397	0.051149	-0.212838	0.768148	0.062862	-0.189662	0.772315	0.077823	-0.179776	0.829040	0.076817	-0.197004	1.081863	0.041921	-0.221648	1.099257	-0.010251	-0.221527	1.162431	-0.001584	-0.189501	1.155498	0.047401	0.094705	1.263867	0.017205	0.052113	1.215741	0.071968	0.054641	1.261316	0.036527	0.110255	1.219325	0.043816	0.034254	1.283088	-0.026955	0.069619	1.094784	0.043383	-0.126295	1.254622	-0.013602	0.045220	1.235479	0.060015
3150	31.500000	-0.013127	1.346260	-0.109979	-0.015183	1.143527	-0.128576	-0.192277	1.003114	-0.001256	-0.154719	0.992529	-0.041861	-0.191447	0.769626	0.029919	-0.152973	0.774890	0.059248	-0.149896	1.261070	-0.008083	-0.215862	0.820354	0.050775	-0.212895	0.768139	0.062551	-0.189697	0.772236	0.077467	-0.179790	0.828943	0.076542	-0.196905	1.081795	0.041860	-0.221568	1.099199	-0.010290	-0.221508	1.162370	-0.001599	-0.189458	1.155434	0.047382	0.094624	1.263831	0.017410	0.052040	1.215763	0.072167	0.054595	1.261275	0.036653	0.110206	1.219302	0.043970	0.034229	1.283055	-0.026825	0.069596	1.094743	0.043490	-0.126341	1.254634	-0.013534	0.045108	1.235391	0.060026
3151	31.510000	-0.013103	1.346265	-0.109848	-0.015116	1.143539	-0.128523	-0.192098	1.003062	-0.001366	-0.154536	0.992541	-0.041984	-0.191336	0.769577	0.029588	-0.152954	0.774814	0.059041	-0.149914	1.261013	-0.008059	-0.215839	0.820336	0.050400	-0.212634	0.767673	0.061762	-0.189762	0.772178	0.077123	-0.179792	0.828846	0.076242	-0.196792	1.081725	0.041816	-0.221492	1.099151	-0.010321	-0.221470	1.162318	-0.001579	-0.189409	1.155370	0.047396	0.094619	1.263808	0.017474	0.051987	1.215679	0.072202	0.054566	1.261236	0.036765	0.110151	1.219259	0.044113	0.034218	1.283036	-0.026692	0.069577	1.094703	0.043571	-0.126381	1.254648	-0.013461	0.045058	1.235368	0.060172
3152	31.520000	-0.013058	1.346305	-0.109701	-0.015039	1.143590	-0.128493	-0.191932	1.003019	-0.001463	-0.154371	0.992557	-0.042097	-0.191236	0.769536	0.029261	-0.152946	0.774747	0.058840	-0.149919	1.260981	-0.008040	-0.215849	0.820316	0.050014	-0.212342	0.767153	0.060884	-0.189874	0.772144	0.076818	-0.179858	0.828783	0.075998	-0.196672	1.081662	0.041785	-0.221405	1.099113	-0.010331	-0.221431	1.162277	-0.001546	-0.189353	1.155301	0.047427	0.094626	1.263770	0.017507	0.051926	1.215680	0.072397	0.054531	1.261194	0.036904	0.110112	1.219230	0.044240	0.034221	1.283033	-0.026554	0.069560	1.094664	0.043622	-0.126414	1.254665	-0.013382	0.045001	1.235318	0.060281
